<?xml version="1.0" encoding="utf-8"?>
<!-- Generator: Adobe Illustrator 13.0.0, SVG Export Plug-In . SVG Version: 6.00 Build 14948)  -->
<!DOCTYPE svg PUBLIC "-//W3C//DTD SVG 1.1//EN" "http://www.w3.org/Graphics/SVG/1.1/DTD/svg11.dtd">
<svg version="1.1" id="Capa_1" xmlns="http://www.w3.org/2000/svg" xmlns:xlink="http://www.w3.org/1999/xlink" x="0px" y="0px"
	 width="211.597px" height="194.503px" viewBox="70.053 -6.208 211.597 194.503"
	 enable-background="new 70.053 -6.208 211.597 194.503" xml:space="preserve">
<g>
	<path d="M203.799,122.072c1.908-0.859,3.193-3.504,3.193-3.504c1.396-6.518,1.857-14.885-0.918-21.865
		c-1.402-2.324-2.342-5.117-4.66-6.511c-2.799-0.929-4.188,1.865-4.188,3.724c0.473,9.77-1.39,20.467,3.26,27.907
		C200.486,121.823,201.891,122.932,203.799,122.072z"/>
	<path fill="#FFFFFF" d="M204.213,106.938c-0.479-0.932-2.34-1.396-3.258-0.932c0,0-1.869,0.932-1.398,1.399
		c0,0-2.799-16.284,0-15.349c3.26-0.473,4.178,3.252,5.115,5.108c1.402,6.052,2.789,9.771,1.402,17.215
		C206.075,111.589,205.604,109.266,204.213,106.938L204.213,106.938z"/>
</g>
<rect x="31.649" y="-6.208" fill="none" width="211.597" height="194.503"/>
</svg>
