<?xml version="1.0" encoding="utf-8"?>
<!-- Generator: Adobe Illustrator 13.0.0, SVG Export Plug-In . SVG Version: 6.00 Build 14948)  -->
<!DOCTYPE svg PUBLIC "-//W3C//DTD SVG 1.1//EN" "http://www.w3.org/Graphics/SVG/1.1/DTD/svg11.dtd">
<svg version="1.1" id="Capa_1" xmlns="http://www.w3.org/2000/svg" xmlns:xlink="http://www.w3.org/1999/xlink" x="0px" y="0px"
	 width="211.597px" height="194.503px" viewBox="70.053 -6.208 211.597 194.503"
	 enable-background="new 70.053 -6.208 211.597 194.503" xml:space="preserve">
<g>
	<path d="M156.852,181.969c9.275,0.555,21.904-10.005,21.904-10.005l1.158,0.943l10.182-5.38l-6.822-1.979
		c-17.674-4.188-33.493-21.859-37.678-39.54c0,0-0.929-1.862,0-2.323c2.324-0.93,5.584,1.858,7.44,4.184
		c-0.929-2.789-0.929-2.789-1.856-3.723c-1.859-2.789-6.513-4.647-11.164-3.254c-1.863,1.395-3.723,2.793-5.115,5.582
		c2.322-0.931,4.181-2.789,6.975-2.789c10.698,14.42-6.512,42.793,16.279,49.304c6.975,0,11.168-8.37,18.607-6.976l6.512,1.863
		l-3.725,1.857l-0.93-1.398c-8.833,4.652-19.073,15.82-29.771,6.98c-6.975-5.115-6.975-13.491-11.627-20.002
		c0,2.789,0.465,6.047,1.399,8.84C142.4,177.51,150.288,181.577,156.852,181.969z"/>
	<path fill="#F90F1E" d="M154.9,156.245c2.322,2.793,0,7.911,0.929,10.698c1.396-1.859,1.396-4.652,1.396-6.977
		c2.322,0,4.188,1.858,5.116,3.719c1.399,1.862,1.399,4.65-0.465,6.517c-1.396,1.394-4.651,0.929-6.51,0
		c-6.519-4.188-8.841-11.627-7.446-19.538C151.18,150.664,153.973,153.457,154.9,156.245L154.9,156.245z"/>
</g>
<rect x="31.649" y="-6.208" fill="none" width="211.597" height="194.503"/>
</svg>
