<?xml version="1.0" encoding="utf-8"?>
<!-- Generator: Adobe Illustrator 13.0.0, SVG Export Plug-In . SVG Version: 6.00 Build 14948)  -->
<!DOCTYPE svg PUBLIC "-//W3C//DTD SVG 1.1//EN" "http://www.w3.org/Graphics/SVG/1.1/DTD/svg11.dtd">
<svg version="1.1" id="Capa_1" xmlns="http://www.w3.org/2000/svg" xmlns:xlink="http://www.w3.org/1999/xlink" x="0px" y="0px"
	 width="211.597px" height="194.503px" viewBox="70.053 -6.208 211.597 194.503"
	 enable-background="new 70.053 -6.208 211.597 194.503" xml:space="preserve">
<g>
	<path d="M225.084,120.462c-5.139-2.786-10.176-2.828-10.176-2.828h-2.801c1.397-8.368,0-18.138-2.787-25.577
		c-7.447-20.938-27.908-34.43-48.84-36.751c0,0-13.698,1.002-18.823,2.25c-5.125,1.248-16.062,6.124-16.062,6.124
		c-10.699,6.976-19.074,18.138-23.726,28.836c0,0-1.854,7.668-2.292,13.897c-0.437,6.229,0.434,15.411,0.434,15.411
		c2.323,19.537,18.139,38.146,36.282,45.121c0,0,2.694,1.373,4.013,1.938c1.354,1.725,3.819,9.736,14.295,12.817
		c6.514,1.916,15.39-3.759,19.842-6.901c1.6-1.129,10.672-4.593,12.777-5.695c14.495,2.729,29.084-7.812,29.084-7.812l6.506-5.047
		c6.978-7.438,13.021-17.679,8.847-27.907C231.657,128.338,230.223,123.248,225.084,120.462z"/>
	<path fill="#F5D6B3" d="M200.486,121.823c-3.729,3.722-8.375,7.446-10.245,12.562c6.987-7.445,14.432-13.955,25.127-13.49
		c0,0,5.694,0.683,9.284,2.787c3.59,2.105,4.677,5.588,4.677,5.588c2.787,7.438-0.931,14.885-4.656,20.931
		c-10.56,10.996-23.196,17.837-38.698,15.792c-1.688,2.193-13.996,6.589-13.996,6.589c-4.834,2.466-9.891,7.077-17.254,5.669
		c-8.38-1.602-12.57-12.693-12.57-12.693s-3.533-1.4-3.532-1.4c-13.956-5.118-26.981-17.215-32.101-31.637
		c-1.858-9.763,2.328-18.603,10.233-24.653c10.698-6.046,24.19-4.646,33.493,2.793c3.725,2.793,6.977,6.046,10.699,7.911
		c-8.84-14.42-15.814-36.283-5.118-53.031c2.323-2.788,6.512-5.118,8.84-5.118c13.022,1.396,23.256,13.957,27.913,25.585l0,0V72.978
		c1.391,1.864,5.578,4.187,3.258,6.979c0,0.931-0.471,1.859,0.461,1.859l1.859-2.788c9.771,10.233,12.561,24.654,11.162,38.604
		l-2.328,0.937L200.486,121.823z"/>
	<path fill="#171516" d="M177.691,71.584c-2.323-2.788-3.725-3.718-6.047-2.324c-2.793,1.396-4.188,4.646-3.259,10.233
		c-1.858-3.257-0.465-8.838,1.399-11.168c1.395-1.859,3.717-1.394,5.581-0.459C176.295,68.796,177.227,70.19,177.691,71.584
		L177.691,71.584z"/>
</g>
<g>
	<path d="M156.852,181.969c9.275,0.555,21.904-10.005,21.904-10.005l1.158,0.943l10.182-5.38l-6.822-1.979
		c-17.674-4.188-33.493-21.859-37.678-39.54c0,0-0.929-1.862,0-2.323c2.324-0.93,5.584,1.858,7.44,4.184
		c-0.929-2.789-0.929-2.789-1.856-3.723c-1.859-2.789-6.513-4.647-11.164-3.254c-1.863,1.395-3.723,2.793-5.115,5.582
		c2.322-0.931,4.181-2.789,6.975-2.789c10.698,14.42-6.512,42.793,16.279,49.304c6.975,0,11.168-8.37,18.607-6.976l6.512,1.863
		l-3.725,1.857l-0.93-1.398c-8.833,4.652-19.073,15.82-29.771,6.98c-6.975-5.115-6.975-13.491-11.627-20.002
		c0,2.789,0.465,6.047,1.399,8.84C142.4,177.51,150.288,181.577,156.852,181.969z"/>
	<path fill="#F90F1E" d="M154.9,156.245c2.322,2.793,0,7.911,0.929,10.698c1.396-1.859,1.396-4.652,1.396-6.977
		c2.322,0,4.188,1.858,5.116,3.719c1.399,1.862,1.399,4.65-0.465,6.517c-1.396,1.394-4.651,0.929-6.51,0
		c-6.519-4.188-8.841-11.627-7.446-19.538C151.18,150.664,153.973,153.457,154.9,156.245L154.9,156.245z"/>
</g>
<path d="M160.48,55.305c8.84-9.306,11.629-24.654,6.047-35.817c-4.188-9.77-14.75-16.909-24.188-18.608
	c-10.987-1.979-20.292,0-20.292,0c-6.336,1.864-12.037,5.582-16.454,11.168c-7.911,9.299-7.446,24.649-2.793,34.883
	c4.651,9.303,14.421,13.955,22.796,16.749L160.48,55.305z"/>
<path d="M101.87,92.516C99.547,80.889,88.848,69.26,77.215,66.932c-13.486-2.322-26.978,2.793-34.422,14.886
	c-5.111,8.375-5.583,20.467-2.324,29.771l8.369,18.609c9.775,8.368,25.59,11.627,37.217,5.116
	c6.046-2.328,11.162-8.375,13.956-13.49L101.87,92.516z"/>
<g>
	<path d="M203.799,122.072c1.908-0.859,3.193-3.504,3.193-3.504c1.396-6.518,1.857-14.885-0.918-21.865
		c-1.402-2.324-2.342-5.117-4.66-6.511c-2.799-0.929-4.188,1.865-4.188,3.724c0.473,9.77-1.39,20.467,3.26,27.907
		C200.486,121.823,201.891,122.932,203.799,122.072z"/>
	<path fill="#FFFFFF" d="M204.213,106.938c-0.479-0.932-2.34-1.396-3.258-0.932c0,0-1.869,0.932-1.398,1.399
		c0,0-2.799-16.284,0-15.349c3.26-0.473,4.178,3.252,5.115,5.108c1.402,6.052,2.789,9.771,1.402,17.215
		C206.075,111.589,205.604,109.266,204.213,106.938L204.213,106.938z"/>
</g>
<g>
	<path fill="#171516" d="M181.413,124.145c4.651,0,8.828-8.834,8.369-19.996c0-11.164-4.183-20.002-9.298-19.538
		c-5.116,0-8.84,8.834-8.84,20C172.109,115.311,176.295,124.145,181.413,124.145L181.413,124.145z"/>
	<path fill="#FFFFFF" d="M185.602,91.122c2.781,7.444,3.265,18.144,0.465,25.583c-0.465-4.652-1.858-10.698-6.518-11.162
		c-3.254,0.464-4.652,1.863-5.582,3.723c-0.465-8.375-0.465-20.467,5.582-23.261C182.809,85.54,184.208,89.263,185.602,91.122
		L185.602,91.122z"/>
</g>
<g>
	<path d="M215.368,120.893c0.467,3.725,3.258,7.445,6.514,9.306c2.791,0.465,5.578,0.465,7.447-0.929l2.328-0.933
		c0.459-3.722,3.717-6.979,4.178-10.703c1.397-7.903,0.938-14.416-5.119-18.608c-2.315-1.858-4.646-1.858-7.434-0.928
		c-6.978,4.187-7.914,12.098-8.373,19.536L215.368,120.893z"/>
	<path fill="#FFFFFF" d="M227.928,108.336c0,5.581-3.256,12.092-5.588,12.092c-2.316-0.465-2.316-7.91-1.387-11.633
		c0.469-2.322,1.387-4.184,4.188-4.184C225.141,104.611,227.928,104.611,227.928,108.336L227.928,108.336z"/>
</g>
<rect x="31.649" y="-6.208" fill="none" width="211.597" height="194.503"/>
</svg>
