<?xml version="1.0" encoding="utf-8"?>
<!-- Generator: Adobe Illustrator 13.0.0, SVG Export Plug-In . SVG Version: 6.00 Build 14948)  -->
<!DOCTYPE svg PUBLIC "-//W3C//DTD SVG 1.1//EN" "http://www.w3.org/Graphics/SVG/1.1/DTD/svg11.dtd">
<svg version="1.1" id="Capa_1" xmlns="http://www.w3.org/2000/svg" xmlns:xlink="http://www.w3.org/1999/xlink" x="0px" y="0px"
	 width="211.597px" height="194.503px" viewBox="70.053 -6.208 211.597 194.503"
	 enable-background="new 70.053 -6.208 211.597 194.503" xml:space="preserve">
<g>
	<path d="M225.084,120.462c-5.139-2.786-10.176-2.828-10.176-2.828h-2.801c1.397-8.368,0-18.138-2.787-25.577
		c-7.447-20.938-27.908-34.43-48.84-36.751c0,0-13.698,1.002-18.823,2.25c-5.125,1.248-16.062,6.124-16.062,6.124
		c-10.699,6.976-19.074,18.138-23.726,28.836c0,0-1.854,7.668-2.292,13.897c-0.437,6.229,0.434,15.411,0.434,15.411
		c2.323,19.537,18.139,38.146,36.282,45.121c0,0,2.694,1.373,4.013,1.938c1.354,1.725,3.819,9.736,14.295,12.817
		c6.514,1.916,15.39-3.759,19.842-6.901c1.6-1.129,10.672-4.593,12.777-5.695c14.495,2.729,29.084-7.812,29.084-7.812l6.506-5.047
		c6.978-7.438,13.021-17.679,8.847-27.907C231.657,128.338,230.223,123.248,225.084,120.462z"/>
	<path fill="#F5D6B3" d="M200.486,121.823c-3.729,3.722-8.375,7.446-10.245,12.562c6.987-7.445,14.432-13.955,25.127-13.49
		c0,0,5.694,0.683,9.284,2.787c3.59,2.105,4.677,5.588,4.677,5.588c2.787,7.438-0.931,14.885-4.656,20.931
		c-10.56,10.996-23.196,17.837-38.698,15.792c-1.688,2.193-13.996,6.589-13.996,6.589c-4.834,2.466-9.891,7.077-17.254,5.669
		c-8.38-1.602-12.57-12.693-12.57-12.693s-3.533-1.4-3.532-1.4c-13.956-5.118-26.981-17.215-32.101-31.637
		c-1.858-9.763,2.328-18.603,10.233-24.653c10.698-6.046,24.19-4.646,33.493,2.793c3.725,2.793,6.977,6.046,10.699,7.911
		c-8.84-14.42-15.814-36.283-5.118-53.031c2.323-2.788,6.512-5.118,8.84-5.118c13.022,1.396,23.256,13.957,27.913,25.585l0,0V72.978
		c1.391,1.864,5.578,4.187,3.258,6.979c0,0.931-0.471,1.859,0.461,1.859l1.859-2.788c9.771,10.233,12.561,24.654,11.162,38.604
		l-2.328,0.937L200.486,121.823z"/>
	<path fill="#171516" d="M177.691,71.584c-2.323-2.788-3.725-3.718-6.047-2.324c-2.793,1.396-4.188,4.646-3.259,10.233
		c-1.858-3.257-0.465-8.838,1.399-11.168c1.395-1.859,3.717-1.394,5.581-0.459C176.295,68.796,177.227,70.19,177.691,71.584
		L177.691,71.584z"/>
</g>
<rect x="31.649" y="-6.208" fill="none" width="211.597" height="194.503"/>
</svg>
